<svg xmlns="http://www.w3.org/2000/svg" xmlns:xlink="http://www.w3.org/1999/xlink" width="458" height="584" viewBox="0 0 458 584"><defs><filter id="a" x="0" y="0" width="458" height="584" filterUnits="userSpaceOnUse"><feOffset dy="9" input="SourceAlpha"/><feGaussianBlur result="b"/><feFlood flood-opacity="0.161"/><feComposite operator="in" in2="b"/><feComposite in="SourceGraphic"/></filter></defs><g transform="translate(-775 -359)"><g transform="matrix(1, 0, 0, 1, 775, 359)" filter="url(#a)"><g fill="#fff" stroke="#fff" stroke-width="1"><rect width="458" height="575" rx="46" stroke="none"/><rect x="0.5" y="0.5" width="457" height="574" rx="45.5" fill="none"/></g></g><g transform="translate(824 430)" fill="#001f3f" stroke="#001f3f" stroke-width="1"><rect width="360" height="59" rx="13" stroke="none"/><rect x="0.5" y="0.5" width="359" height="58" rx="12.5" fill="none"/></g><g transform="translate(824 430)" fill="#001f3f" stroke="#001f3f" stroke-width="1"><rect width="360" height="59" rx="13" stroke="none"/><rect x="0.5" y="0.5" width="359" height="58" rx="12.5" fill="none"/></g><rect width="327" height="59" rx="13" transform="translate(824 525)" fill="#eee"/><rect width="289" height="59" rx="13" transform="translate(824 621)" fill="#eee"/><rect width="227" height="59" rx="13" transform="translate(824 716)" fill="#eee"/><rect width="227" height="59" rx="13" transform="translate(824 812)" fill="#eee"/><ellipse cx="52" cy="52.5" rx="52" ry="52.5" transform="translate(1080 766)" fill="#a75377"/><text transform="translate(1113 845)" fill="#fff" font-size="68" font-family="OpenSans-Bold, Open Sans" font-weight="700"><tspan x="0" y="0">+</tspan></text></g></svg>