<svg xmlns="http://www.w3.org/2000/svg" xmlns:xlink="http://www.w3.org/1999/xlink" width="165.285" height="146.695" viewBox="0 0 165.285 146.695"><defs><linearGradient id="a" x1="0.841" y1="0.182" x2="0.2" y2="0.881" gradientUnits="objectBoundingBox"><stop offset="0" stop-color="#a46240"/><stop offset="1" stop-color="#431616"/></linearGradient></defs><g transform="translate(-1078.795 -1387.594) rotate(24)"><path d="M0,49.9C0,22.343,23.347,0,52.146,0c25.732,0,47.111,17.835,51.373,41.294a9.134,9.134,0,0,1,1.447-.115h22.45a9.073,9.073,0,1,1,0,18.147h-22.45a9.128,9.128,0,0,1-1.575-.136C98.844,82.315,77.63,99.808,52.146,99.808,23.347,99.808,0,77.466,0,49.9Z" transform="translate(1587 812.333)" fill="#fff"/><ellipse cx="38.388" cy="36.255" rx="38.388" ry="36.255" transform="translate(1600.649 825.982)" fill="url(#a)"/></g></svg>