<svg xmlns="http://www.w3.org/2000/svg" width="116" height="105" viewBox="0 0 116 105"><g transform="translate(-497 -1571)"><path d="M-1990-1493h-80a17.882,17.882,0,0,1-12.728-5.272A17.883,17.883,0,0,1-2088-1511v-69a17.883,17.883,0,0,1,5.272-12.728A17.882,17.882,0,0,1-2070-1598h80a17.882,17.882,0,0,1,12.728,5.272A17.883,17.883,0,0,1-1972-1580v69a17.882,17.882,0,0,1-5.272,12.728A17.882,17.882,0,0,1-1990-1493Zm-68-94a18.02,18.02,0,0,0-18,18v47a18.02,18.02,0,0,0,18,18h56a18.02,18.02,0,0,0,18-18v-47a18.02,18.02,0,0,0-18-18Z" transform="translate(2585 3169)" fill="#a75377"/><path d="M-2088-1549.477v-24.741h.337l18.288-19.434,15.718,16.7,22.822-21.051,15.6,23.783h.535v24.741Z" transform="translate(2606.064 3206.5)" fill="#a75377"/><circle cx="9.029" cy="9.029" r="9.029" transform="translate(554.842 1590.896) rotate(-8)" fill="#a75377"/></g></svg>